<svg width="1381" height="817" viewBox="0 0 1381 817" fill="none" xmlns="http://www.w3.org/2000/svg">
<g clip-path="url(#clip0_22368_1023)">
<path d="M133 601H1245" stroke="url(#paint0_linear_22368_1023)" stroke-opacity="0.8" stroke-width="4" stroke-dasharray="15 15"/>
<path d="M231 708H1343" stroke="url(#paint1_linear_22368_1023)" stroke-opacity="0.8" stroke-width="4" stroke-dasharray="15 15"/>
<path d="M269 815H1381" stroke="url(#paint2_linear_22368_1023)" stroke-opacity="0.8" stroke-width="4" stroke-dasharray="15 15"/>
<path d="M1194 2H181C140.683 2 108 34.6832 108 75V289C108 329.317 140.683 362 181 362H1194C1234.32 362 1267 329.317 1267 289V75C1267 34.6832 1234.32 2 1194 2Z" fill="#171717" stroke="#262626" stroke-width="4"/>
<path d="M506 63.0977H223C202.013 63.0977 185 80.1108 185 101.098V279.903C185 300.889 202.013 317.903 223 317.903H506C526.987 317.903 544 300.889 544 279.903V101.098C544 80.1108 526.987 63.0977 506 63.0977Z" fill="#020202"/>
<path d="M414.963 189.555C414.783 188.671 414.356 187.856 413.733 187.204C413.109 186.552 412.313 186.091 411.438 185.873L378.677 177.678L390.793 149.401C391.214 148.42 391.293 147.326 391.018 146.294C390.744 145.262 390.132 144.352 389.279 143.709C388.427 143.062 387.382 142.722 386.313 142.743C385.244 142.764 384.213 143.144 383.386 143.823L330.854 186.804C330.169 187.364 329.653 188.104 329.364 188.941C329.075 189.778 329.024 190.678 329.218 191.542C329.411 192.406 329.84 193.2 330.458 193.834C331.076 194.467 331.858 194.917 332.717 195.132L364.804 203.16L348.83 231.117C348.416 231.843 348.2 232.665 348.204 233.5C348.207 234.336 348.43 235.156 348.849 235.879C349.269 236.601 349.871 237.201 350.595 237.618C351.319 238.036 352.139 238.256 352.975 238.256C354.008 238.256 355.014 237.921 355.84 237.301L413.148 194.321C413.87 193.779 414.423 193.044 414.745 192.2C415.066 191.357 415.141 190.439 414.963 189.555Z" fill="#3B82F6"/>
<path d="M638.807 75.6362V112H634.403V75.6362H638.807ZM676.471 75.6362V112H672.21L652.394 83.4487H652.039V112H647.636V75.6362H651.897L671.784 104.259H672.139V75.6362H676.471ZM699.345 112V75.6362H711.632C714.473 75.6362 716.805 76.1215 718.627 77.0921C720.45 78.0509 721.8 79.3708 722.676 81.0516C723.552 82.7325 723.99 84.6442 723.99 86.7867C723.99 88.9293 723.552 90.8291 722.676 92.4863C721.8 94.1435 720.456 95.4456 718.645 96.3926C716.834 97.3277 714.52 97.7953 711.703 97.7953H701.76V93.818H711.561C713.502 93.818 715.065 93.5339 716.248 92.9657C717.444 92.3975 718.308 91.5926 718.841 90.5509C719.385 89.4974 719.657 88.2427 719.657 86.7867C719.657 85.3308 719.385 84.0583 718.841 82.9693C718.296 81.8802 717.426 81.0398 716.23 80.448C715.035 79.8443 713.455 79.5424 711.49 79.5424H703.748V112H699.345ZM716.461 95.6646L725.41 112H720.297L711.49 95.6646H716.461ZM731.327 112V75.6362H753.273V79.5424H735.731V91.8293H752.137V95.7356H735.731V108.094H753.557V112H731.327ZM762.702 75.6362L773.497 106.247H773.923L784.719 75.6362H789.335L775.983 112H771.437L758.085 75.6362H762.702ZM799.403 75.6362V112H794.999V75.6362H799.403ZM808.232 112V75.6362H830.178V79.5424H812.635V91.8293H829.041V95.7356H812.635V108.094H830.462V112H808.232ZM844.719 112L834.776 75.6362H839.251L846.85 105.253H847.205L854.947 75.6362H859.918L867.66 105.253H868.015L875.614 75.6362H880.089L870.146 112H865.6L857.575 83.0225H857.29L849.265 112H844.719Z" fill="#404040"/>
<path d="M599.5 113C610.27 113 619 104.27 619 93.5C619 82.7304 610.27 74 599.5 74C588.73 74 580 82.7304 580 93.5C580 104.27 588.73 113 599.5 113Z" fill="#404040"/>
<g filter="url(#filter0_d_22368_1023)">
<path d="M1268 106H107C66.6832 106 34 138.683 34 179V439C34 479.317 66.6832 512 107 512H1268C1308.32 512 1341 479.317 1341 439V179C1341 138.683 1308.32 106 1268 106Z" fill="#171717" stroke="#262626" stroke-width="4"/>
<path d="M557.384 440V404.664H545.68V400.8H573.792V404.664H562.088V440H557.384ZM586.879 440.672C584.266 440.672 581.914 440.075 579.823 438.88C577.733 437.648 576.09 435.931 574.895 433.728C573.701 431.488 573.103 428.893 573.103 425.944C573.103 422.92 573.701 420.307 574.895 418.104C576.127 415.864 577.789 414.147 579.879 412.952C582.007 411.72 584.378 411.104 586.991 411.104C589.679 411.104 592.05 411.72 594.103 412.952C596.194 414.147 597.837 415.864 599.031 418.104C600.263 420.307 600.879 422.901 600.879 425.888C600.879 428.875 600.263 431.488 599.031 433.728C597.799 435.931 596.138 437.648 594.047 438.88C591.957 440.075 589.567 440.672 586.879 440.672ZM586.935 436.64C588.541 436.64 590.034 436.248 591.415 435.464C592.797 434.643 593.917 433.429 594.775 431.824C595.634 430.219 596.063 428.24 596.063 425.888C596.063 423.499 595.634 421.52 594.775 419.952C593.954 418.347 592.853 417.152 591.471 416.368C590.127 415.547 588.634 415.136 586.991 415.136C585.423 415.136 583.93 415.547 582.511 416.368C581.13 417.152 580.01 418.347 579.151 419.952C578.33 421.52 577.919 423.499 577.919 425.888C577.919 428.24 578.33 430.219 579.151 431.824C580.01 433.429 581.111 434.643 582.455 435.464C583.837 436.248 585.33 436.64 586.935 436.64ZM619.907 440.672C617.181 440.672 614.792 440.037 612.739 438.768C610.685 437.461 609.099 435.688 607.979 433.448C606.859 431.208 606.299 428.669 606.299 425.832C606.299 422.995 606.859 420.475 607.979 418.272C609.099 416.032 610.685 414.277 612.739 413.008C614.829 411.739 617.237 411.104 619.963 411.104C622.277 411.104 624.293 411.571 626.011 412.504C627.765 413.437 629.109 414.744 630.043 416.424V399.68H634.747V440H630.491L630.099 435.352C629.501 436.285 628.736 437.163 627.803 437.984C626.869 438.768 625.749 439.421 624.443 439.944C623.136 440.429 621.624 440.672 619.907 440.672ZM620.467 436.584C622.333 436.584 623.976 436.136 625.395 435.24C626.813 434.344 627.915 433.112 628.699 431.544C629.483 429.939 629.875 428.053 629.875 425.888C629.875 423.76 629.483 421.893 628.699 420.288C627.915 418.683 626.813 417.432 625.395 416.536C623.976 415.64 622.333 415.192 620.467 415.192C618.637 415.192 617.013 415.64 615.595 416.536C614.176 417.432 613.075 418.683 612.291 420.288C611.507 421.893 611.115 423.76 611.115 425.888C611.115 428.053 611.507 429.939 612.291 431.544C613.075 433.112 614.176 434.344 615.595 435.24C617.013 436.136 618.637 436.584 620.467 436.584ZM651.768 440.672C649.491 440.672 647.587 440.28 646.056 439.496C644.525 438.675 643.387 437.611 642.64 436.304C641.893 434.96 641.52 433.504 641.52 431.936C641.52 430.032 642.005 428.427 642.976 427.12C643.984 425.776 645.384 424.768 647.176 424.096C649.005 423.387 651.152 423.032 653.616 423.032H661.064C661.064 421.277 660.784 419.821 660.224 418.664C659.701 417.469 658.917 416.573 657.872 415.976C656.864 415.379 655.595 415.08 654.064 415.08C652.272 415.08 650.723 415.528 649.416 416.424C648.109 417.32 647.307 418.645 647.008 420.4H642.192C642.416 418.384 643.088 416.704 644.208 415.36C645.365 413.979 646.821 412.933 648.576 412.224C650.331 411.477 652.16 411.104 654.064 411.104C656.677 411.104 658.843 411.589 660.56 412.56C662.315 413.493 663.621 414.819 664.48 416.536C665.339 418.216 665.768 420.213 665.768 422.528V440H661.568L661.288 435.016C660.915 435.8 660.429 436.547 659.832 437.256C659.272 437.928 658.6 438.525 657.816 439.048C657.032 439.533 656.136 439.925 655.128 440.224C654.157 440.523 653.037 440.672 651.768 440.672ZM652.496 436.696C653.803 436.696 654.979 436.435 656.024 435.912C657.107 435.352 658.021 434.605 658.768 433.672C659.515 432.701 660.075 431.637 660.448 430.48C660.859 429.323 661.064 428.109 661.064 426.84V426.672H654.008C652.179 426.672 650.704 426.896 649.584 427.344C648.464 427.755 647.661 428.352 647.176 429.136C646.691 429.883 646.448 430.741 646.448 431.712C646.448 432.72 646.672 433.597 647.12 434.344C647.605 435.091 648.296 435.669 649.192 436.08C650.125 436.491 651.227 436.696 652.496 436.696ZM675.305 452.32L682.193 436.864H680.569L669.481 411.776H674.577L683.761 433.336L693.393 411.776H698.265L680.233 452.32H675.305ZM696.255 446.888L699.503 434.512H704.375L699.503 446.888H696.255ZM729.59 440V406.064L722.87 407.744V404.384L731.158 400.8H734.35V440H729.59ZM757.731 440.672C754.297 440.672 751.329 439.832 748.827 438.152C746.363 436.435 744.478 434.064 743.171 431.04C741.865 427.979 741.211 424.432 741.211 420.4C741.211 416.368 741.865 412.84 743.171 409.816C744.478 406.755 746.363 404.384 748.827 402.704C751.329 400.987 754.297 400.128 757.731 400.128C761.166 400.128 764.097 400.987 766.523 402.704C768.987 404.384 770.873 406.755 772.179 409.816C773.486 412.84 774.139 416.368 774.139 420.4C774.139 424.432 773.486 427.979 772.179 431.04C770.873 434.064 768.987 436.435 766.523 438.152C764.097 439.832 761.166 440.672 757.731 440.672ZM757.675 436.528C759.915 436.528 761.913 435.893 763.667 434.624C765.422 433.317 766.803 431.469 767.811 429.08C768.819 426.653 769.323 423.76 769.323 420.4C769.323 417.04 768.819 414.165 767.811 411.776C766.803 409.349 765.422 407.501 763.667 406.232C761.913 404.963 759.915 404.328 757.675 404.328C755.435 404.328 753.419 404.963 751.627 406.232C749.873 407.501 748.491 409.349 747.483 411.776C746.513 414.165 746.027 417.04 746.027 420.4C746.027 423.76 746.513 426.653 747.483 429.08C748.491 431.469 749.873 433.317 751.627 434.624C753.419 435.893 755.435 436.528 757.675 436.528ZM782.405 440.28C781.471 440.28 780.687 439.981 780.053 439.384C779.455 438.749 779.157 437.984 779.157 437.088C779.157 436.192 779.455 435.445 780.053 434.848C780.687 434.213 781.471 433.896 782.405 433.896C783.338 433.896 784.103 434.213 784.701 434.848C785.298 435.445 785.597 436.192 785.597 437.088C785.597 437.984 785.298 438.749 784.701 439.384C784.103 439.981 783.338 440.28 782.405 440.28ZM782.405 417.488C781.471 417.488 780.687 417.189 780.053 416.592C779.455 415.957 779.157 415.192 779.157 414.296C779.157 413.4 779.455 412.653 780.053 412.056C780.687 411.421 781.471 411.104 782.405 411.104C783.338 411.104 784.103 411.421 784.701 412.056C785.298 412.653 785.597 413.4 785.597 414.296C785.597 415.192 785.298 415.957 784.701 416.592C784.103 417.189 783.338 417.488 782.405 417.488ZM791.709 440V436.696C794.36 434.605 796.88 432.496 799.269 430.368C801.696 428.24 803.842 426.131 805.709 424.04C807.576 421.912 809.032 419.84 810.077 417.824C811.16 415.808 811.701 413.867 811.701 412C811.701 410.619 811.458 409.349 810.973 408.192C810.488 406.997 809.704 406.027 808.621 405.28C807.576 404.533 806.157 404.16 804.365 404.16C802.61 404.16 801.154 404.552 799.997 405.336C798.84 406.083 797.962 407.091 797.365 408.36C796.805 409.592 796.525 410.955 796.525 412.448H791.989C792.026 409.872 792.568 407.669 793.613 405.84C794.696 403.973 796.17 402.555 798.037 401.584C799.904 400.613 802.032 400.128 804.421 400.128C806.773 400.128 808.845 400.576 810.637 401.472C812.429 402.331 813.829 403.619 814.837 405.336C815.882 407.053 816.405 409.219 816.405 411.832C816.405 413.661 816.013 415.491 815.229 417.32C814.482 419.149 813.474 420.941 812.205 422.696C810.936 424.413 809.517 426.075 807.949 427.68C806.418 429.285 804.832 430.797 803.189 432.216C801.584 433.635 800.072 434.923 798.653 436.08H817.749V440H791.709ZM837.807 440.672C835.119 440.672 832.785 440.187 830.807 439.216C828.865 438.245 827.316 436.92 826.159 435.24C825.039 433.56 824.329 431.675 824.031 429.584H828.623C829.071 431.675 830.097 433.373 831.703 434.68C833.308 435.987 835.361 436.64 837.863 436.64C839.729 436.64 841.316 436.211 842.623 435.352C843.967 434.493 844.993 433.317 845.703 431.824C846.449 430.331 846.823 428.669 846.823 426.84C846.823 424.936 846.449 423.256 845.703 421.8C844.956 420.344 843.929 419.224 842.623 418.44C841.316 417.619 839.785 417.208 838.031 417.208C835.903 417.208 834.092 417.675 832.599 418.608C831.105 419.541 829.985 420.736 829.239 422.192H824.703L827.951 400.8H848.671V404.888H831.591L829.407 416.928C830.34 415.845 831.572 414.968 833.103 414.296C834.671 413.587 836.481 413.232 838.535 413.232C840.476 413.232 842.231 413.568 843.799 414.24C845.367 414.912 846.711 415.864 847.831 417.096C848.951 418.328 849.809 419.765 850.407 421.408C851.041 423.051 851.359 424.843 851.359 426.784C851.359 428.688 851.041 430.48 850.407 432.16C849.809 433.803 848.932 435.277 847.775 436.584C846.617 437.853 845.199 438.861 843.519 439.608C841.839 440.317 839.935 440.672 837.807 440.672Z" fill="#737373"/>
<path d="M633.239 175.636V212H628.977L609.162 183.449H608.807V212H604.403V175.636H608.665L628.551 204.259H628.906V175.636H633.239ZM642.05 212V175.636H663.996V179.543H646.453V191.83H662.86V195.736H646.453V208.094H664.28V212H642.05ZM678.538 212L668.595 175.636H673.069L680.669 205.253H681.024L688.765 175.636H693.737L701.478 205.253H701.833L709.433 175.636H713.907L703.964 212H699.419L691.393 183.023H691.109L683.083 212H678.538Z" fill="#3B82F6"/>
<path d="M563.5 213C574.27 213 583 204.27 583 193.5C583 182.73 574.27 174 563.5 174C552.73 174 544 182.73 544 193.5C544 204.27 552.73 213 563.5 213Z" fill="#3B82F6"/>
<path d="M437 174H150C124.595 174 104 194.595 104 220V397C104 422.405 124.595 443 150 443H437C462.405 443 483 422.405 483 397V220C483 194.595 462.405 174 437 174Z" fill="#020202"/>
<path d="M346.774 307.502C346.584 306.569 346.134 305.708 345.476 305.02C344.817 304.332 343.977 303.845 343.053 303.615L308.468 294.963L321.258 265.111C321.702 264.075 321.786 262.92 321.496 261.831C321.206 260.742 320.56 259.781 319.66 259.102C318.76 258.42 317.657 258.061 316.528 258.082C315.4 258.104 314.311 258.506 313.439 259.223L257.98 304.598C257.257 305.19 256.712 305.971 256.407 306.854C256.102 307.738 256.048 308.688 256.252 309.6C256.456 310.512 256.91 311.35 257.562 312.019C258.214 312.688 259.04 313.163 259.947 313.39L293.822 321.866L276.957 351.379C276.52 352.146 276.293 353.014 276.296 353.896C276.3 354.778 276.535 355.644 276.978 356.407C277.421 357.169 278.056 357.803 278.82 358.243C279.585 358.684 280.451 358.916 281.333 358.917C282.424 358.917 283.486 358.563 284.358 357.908L344.858 312.533C345.621 311.961 346.205 311.185 346.544 310.295C346.883 309.404 346.963 308.436 346.774 307.502Z" fill="#3B82F6"/>
</g>
<path d="M579.568 346.44C572.656 346.44 566.768 344.936 561.904 341.928C557.04 338.888 553.312 334.664 550.72 329.256C548.16 323.848 546.88 317.576 546.88 310.44C546.88 303.304 548.16 297.032 550.72 291.624C553.312 286.216 557.04 282.008 561.904 279C566.768 275.96 572.656 274.44 579.568 274.44C587.536 274.44 594.128 276.456 599.344 280.488C604.592 284.52 608.24 289.944 610.288 296.76L600.112 299.496C598.768 294.664 596.368 290.872 592.912 288.12C589.488 285.368 585.04 283.992 579.568 283.992C574.672 283.992 570.592 285.096 567.328 287.304C564.064 289.512 561.6 292.6 559.936 296.568C558.304 300.536 557.488 305.16 557.488 310.44C557.456 315.72 558.256 320.344 559.888 324.312C561.552 328.28 564.016 331.368 567.28 333.576C570.576 335.784 574.672 336.888 579.568 336.888C585.04 336.888 589.488 335.512 592.912 332.76C596.368 329.976 598.768 326.184 600.112 321.384L610.288 324.12C608.24 330.936 604.592 336.36 599.344 340.392C594.128 344.424 587.536 346.44 579.568 346.44ZM620.845 345V275.88H648.781C649.453 275.88 650.285 275.912 651.277 275.976C652.269 276.008 653.213 276.104 654.109 276.264C657.949 276.872 661.149 278.184 663.709 280.2C666.301 282.216 668.237 284.76 669.517 287.832C670.797 290.904 671.437 294.296 671.437 298.008C671.437 303.512 670.029 308.264 667.213 312.264C664.397 316.232 660.173 318.712 654.541 319.704L650.461 320.184H630.877V345H620.845ZM661.261 345L647.629 316.872L657.757 314.28L672.733 345H661.261ZM630.877 310.68H648.397C649.037 310.68 649.741 310.648 650.509 310.584C651.309 310.52 652.061 310.408 652.765 310.248C654.813 309.768 656.461 308.888 657.709 307.608C658.957 306.296 659.853 304.792 660.397 303.096C660.941 301.4 661.213 299.704 661.213 298.008C661.213 296.312 660.941 294.632 660.397 292.968C659.853 291.272 658.957 289.784 657.709 288.504C656.461 287.192 654.813 286.296 652.765 285.816C652.061 285.624 651.309 285.496 650.509 285.432C649.741 285.368 649.037 285.336 648.397 285.336H630.877V310.68ZM683.283 345V275.88H692.355L717.411 327.864L742.323 275.88H751.491V344.952H741.987V297.672L719.667 345H715.107L692.739 297.672V345H683.283ZM798.798 345L778.734 275.88H789.246L803.79 328.152L818.334 275.928L828.894 275.88L843.438 328.152L857.982 275.88H868.542L848.43 345H838.446L823.614 293.304L808.782 345H798.798ZM893.388 346.44C888.204 346.44 883.708 345.272 879.9 342.936C876.092 340.6 873.148 337.384 871.068 333.288C869.02 329.16 867.996 324.408 867.996 319.032C867.996 313.624 869.052 308.872 871.164 304.776C873.276 300.648 876.236 297.448 880.044 295.176C883.852 292.872 888.3 291.72 893.388 291.72C898.572 291.72 903.068 292.888 906.876 295.224C910.684 297.56 913.628 300.776 915.708 304.872C917.788 308.968 918.828 313.688 918.828 319.032C918.828 324.44 917.772 329.208 915.66 333.336C913.58 337.432 910.636 340.648 906.828 342.984C903.02 345.288 898.54 346.44 893.388 346.44ZM893.388 336.984C898.348 336.984 902.044 335.32 904.476 331.992C906.94 328.632 908.172 324.312 908.172 319.032C908.172 313.624 906.924 309.304 904.428 306.072C901.964 302.808 898.284 301.176 893.388 301.176C890.028 301.176 887.26 301.944 885.084 303.48C882.908 304.984 881.292 307.08 880.236 309.768C879.18 312.424 878.652 315.512 878.652 319.032C878.652 324.472 879.9 328.824 882.396 332.088C884.892 335.352 888.556 336.984 893.388 336.984ZM929.376 345V293.16H938.304V305.736L937.056 304.104C937.696 302.44 938.528 300.92 939.552 299.544C940.576 298.136 941.76 296.984 943.104 296.088C944.416 295.128 945.872 294.392 947.472 293.88C949.104 293.336 950.768 293.016 952.464 292.92C954.16 292.792 955.792 292.872 957.36 293.16V302.568C955.664 302.12 953.776 301.992 951.696 302.184C949.648 302.376 947.76 303.032 946.032 304.152C944.4 305.208 943.104 306.488 942.144 307.992C941.216 309.496 940.544 311.176 940.128 313.032C939.712 314.856 939.504 316.792 939.504 318.84V345H929.376ZM966.453 345L966.501 275.88H976.677V318.12L997.029 293.16H1009.8L988.293 319.08L1012.01 345H998.373L976.677 320.04V345H966.453ZM1043.68 301.224V293.16H1057.12V301.224H1043.68ZM1021.6 345V291.336C1021.6 290.024 1021.65 288.632 1021.74 287.16C1021.84 285.656 1022.11 284.184 1022.56 282.744C1023.04 281.272 1023.82 279.928 1024.91 278.712C1026.22 277.272 1027.66 276.248 1029.23 275.64C1030.8 275.032 1032.35 274.68 1033.89 274.584C1035.45 274.488 1036.89 274.44 1038.21 274.44H1044.73V282.696H1038.69C1036.32 282.696 1034.54 283.288 1033.36 284.472C1032.21 285.624 1031.63 287.272 1031.63 289.416V345H1021.6ZM1013.01 301.224V293.16H1044.73V301.224H1013.01ZM1056.49 345V274.44H1066.53V345H1056.49ZM1103.48 346.44C1098.3 346.44 1093.8 345.272 1089.99 342.936C1086.19 340.6 1083.24 337.384 1081.16 333.288C1079.11 329.16 1078.09 324.408 1078.09 319.032C1078.09 313.624 1079.15 308.872 1081.26 304.776C1083.37 300.648 1086.33 297.448 1090.14 295.176C1093.95 292.872 1098.39 291.72 1103.48 291.72C1108.67 291.72 1113.16 292.888 1116.97 295.224C1120.78 297.56 1123.72 300.776 1125.8 304.872C1127.88 308.968 1128.92 313.688 1128.92 319.032C1128.92 324.44 1127.87 329.208 1125.75 333.336C1123.67 337.432 1120.73 340.648 1116.92 342.984C1113.11 345.288 1108.63 346.44 1103.48 346.44ZM1103.48 336.984C1108.44 336.984 1112.14 335.32 1114.57 331.992C1117.03 328.632 1118.27 324.312 1118.27 319.032C1118.27 313.624 1117.02 309.304 1114.52 306.072C1112.06 302.808 1108.38 301.176 1103.48 301.176C1100.12 301.176 1097.35 301.944 1095.18 303.48C1093 304.984 1091.39 307.08 1090.33 309.768C1089.27 312.424 1088.75 315.512 1088.75 319.032C1088.75 324.472 1089.99 328.824 1092.49 332.088C1094.99 335.352 1098.65 336.984 1103.48 336.984ZM1148.64 345L1132.8 293.112L1142.73 293.16L1153.58 328.728L1164.52 293.16H1173.16L1184.11 328.728L1194.96 293.16H1204.84L1189 345H1180.94L1168.84 307.464L1156.7 345H1148.64Z" fill="white"/>
</g>
<defs>
<filter id="filter0_d_22368_1023" x="0.9" y="54.9" width="1373.2" height="472.2" filterUnits="userSpaceOnUse" color-interpolation-filters="sRGB">
<feFlood flood-opacity="0" result="BackgroundImageFix"/>
<feColorMatrix in="SourceAlpha" type="matrix" values="0 0 0 0 0 0 0 0 0 0 0 0 0 0 0 0 0 0 127 0" result="hardAlpha"/>
<feOffset dy="-18"/>
<feGaussianBlur stdDeviation="15.55"/>
<feComposite in2="hardAlpha" operator="out"/>
<feColorMatrix type="matrix" values="0 0 0 0 0 0 0 0 0 0 0 0 0 0 0 0 0 0 0.65 0"/>
<feBlend mode="normal" in2="BackgroundImageFix" result="effect1_dropShadow_22368_1023"/>
<feBlend mode="normal" in="SourceGraphic" in2="effect1_dropShadow_22368_1023" result="shape"/>
</filter>
<linearGradient id="paint0_linear_22368_1023" x1="-nan" y1="-nan" x2="-nan" y2="-nan" gradientUnits="userSpaceOnUse">
<stop stop-color="#171717"/>
<stop offset="1" stop-color="#8C8C8C"/>
</linearGradient>
<linearGradient id="paint1_linear_22368_1023" x1="-nan" y1="-nan" x2="-nan" y2="-nan" gradientUnits="userSpaceOnUse">
<stop stop-color="#171717"/>
<stop offset="1" stop-color="#8C8C8C"/>
</linearGradient>
<linearGradient id="paint2_linear_22368_1023" x1="-nan" y1="-nan" x2="-nan" y2="-nan" gradientUnits="userSpaceOnUse">
<stop stop-color="#171717"/>
<stop offset="1" stop-color="#8C8C8C"/>
</linearGradient>
<clipPath id="clip0_22368_1023">
<rect width="1381" height="817" fill="white"/>
</clipPath>
</defs>
</svg>
