<svg width="1126" height="422" viewBox="0 0 1126 422" fill="none" xmlns="http://www.w3.org/2000/svg">
<g clip-path="url(#clip0_22368_1043)">
<path d="M0 18C0 8.05888 8.05888 0 18 0H1126V422H0V18Z" fill="white" fill-opacity="0.01"/>
<mask id="mask0_22368_1043" style="mask-type:luminance" maskUnits="userSpaceOnUse" x="0" y="0" width="1126" height="422">
<path d="M0 18C0 8.05888 8.05888 0 18 0H1126V422H0V18Z" fill="white"/>
</mask>
<g mask="url(#mask0_22368_1043)">
<path d="M-2 18C-2 6.95431 6.95431 -2 18 -2H1126V2H18C9.16344 2 2 9.16344 2 18H-2ZM-2 422V18C-2 6.95431 6.95431 -2 18 -2V2C9.16344 2 2 9.16344 2 18V422H-2Z" fill="white" fill-opacity="0.16"/>
</g>
<path d="M21 51.3333C21 39.5507 28.1634 30 37 30H543C551.837 30 559 39.5507 559 51.3333V422H21V51.3333Z" fill="white" fill-opacity="0.02"/>
<mask id="mask1_22368_1043" style="mask-type:luminance" maskUnits="userSpaceOnUse" x="21" y="30" width="538" height="392">
<path d="M21 51.3333C21 39.5507 28.1634 30 37 30H543C551.837 30 559 39.5507 559 51.3333V422H21V51.3333Z" fill="white"/>
</mask>
<g mask="url(#mask1_22368_1043)">
<path d="M19 51.3335C19 38.0788 27.0589 27.3335 37 27.3335H543C552.941 27.3335 561 38.0788 561 51.3335H557C557 41.0242 550.732 32.6668 543 32.6668H37C29.268 32.6668 23 41.0242 23 51.3335H19ZM19 422V51.3335C19 38.0788 27.0589 27.3335 37 27.3335V32.6668C29.268 32.6668 23 41.0242 23 51.3335V422H19ZM543 27.3335C552.941 27.3335 561 38.0788 561 51.3335V422H557V51.3335C557 41.0242 550.732 32.6668 543 32.6668V27.3335Z" fill="url(#paint0_linear_22368_1043)"/>
</g>
<g clip-path="url(#clip1_22368_1043)">
<path fill-rule="evenodd" clip-rule="evenodd" d="M163.642 139.142C163.276 137.899 162.814 136.736 162.269 135.649L145.752 140.5L147.744 147.283L157.183 144.512C157.42 146.823 156.73 149.044 155.238 150.833L156.53 155.233L162.198 153.568C164.617 149.541 165.21 144.483 163.642 139.142Z" fill="white"/>
<path fill-rule="evenodd" clip-rule="evenodd" d="M151.839 161.226C156.574 159.835 160.083 157.099 162.198 153.569L155.238 150.833C153.976 152.346 152.15 153.558 149.79 154.251C145.222 155.592 140.45 153.643 137.854 149.902L131.994 151.623L133.329 156.167C137.898 161.051 144.983 163.239 151.839 161.226Z" fill="white"/>
<path fill-rule="evenodd" clip-rule="evenodd" d="M137.854 149.902C137.194 148.953 136.664 147.887 136.325 146.732C135.986 145.576 135.855 144.393 135.896 143.238L134.562 138.694L128.703 140.415C128.21 143.131 128.319 146.009 129.15 148.839C129.982 151.668 131.446 154.148 133.329 156.167L137.854 149.902Z" fill="white"/>
<path fill-rule="evenodd" clip-rule="evenodd" d="M143.586 133.126C146.161 132.369 148.733 132.575 151.061 133.779L154.614 127.272C150.745 125.334 146.265 124.762 141.538 126.15C134.682 128.164 129.905 133.836 128.703 140.415L135.896 143.238C136.058 138.688 139.018 134.467 143.586 133.126Z" fill="white"/>
</g>
<path fill-rule="evenodd" clip-rule="evenodd" d="M440.432 151.116C456.969 143.91 467.997 139.161 473.514 136.866C489.268 130.313 492.542 129.175 494.676 129.137C495.145 129.129 496.194 129.245 496.874 129.797C497.448 130.262 497.606 130.891 497.681 131.333C497.757 131.774 497.851 132.78 497.776 133.566C496.922 142.536 493.228 164.304 491.349 174.35C490.554 178.601 488.988 180.027 487.472 180.166C484.178 180.469 481.676 177.989 478.486 175.898C473.493 172.625 470.672 170.588 465.826 167.394C460.225 163.703 463.856 161.674 467.048 158.359C467.883 157.492 482.398 144.289 482.679 143.092C482.714 142.942 482.746 142.384 482.415 142.089C482.083 141.794 481.594 141.895 481.24 141.975C480.74 142.089 472.763 147.361 457.312 157.791C455.048 159.345 452.998 160.103 451.16 160.063C449.135 160.019 445.239 158.918 442.342 157.976C438.79 156.821 435.966 156.211 436.212 154.25C436.34 153.228 437.747 152.183 440.432 151.116Z" fill="white"/>
<g clip-path="url(#clip2_22368_1043)">
<path d="M376.338 73.8018L383.732 86.6091L376.528 90.7682L380.687 97.972C377.547 99.7853 372.773 97.2041 370.463 93.2032L363.53 81.1961L376.338 73.8018Z" fill="white"/>
<path d="M393.948 63.6338L401.343 76.4411L394.139 80.6002L398.298 87.804C395.157 89.6173 390.383 87.0361 388.074 83.0352L381.141 71.0281L393.948 63.6338Z" fill="white"/>
</g>
<path d="M155.883 331H71.1169C64.9772 331 60 335.968 60 342.097V362.903C60 369.032 64.9772 374 71.1169 374H155.883C162.023 374 167 369.032 167 362.903V342.097C167 335.968 162.023 331 155.883 331Z" fill="url(#paint1_linear_22368_1043)" fill-opacity="0.2"/>
<path d="M155.638 332H71.3618C65.6392 332 61 336.589 61 342.25V362.75C61 368.411 65.6392 373 71.3618 373H155.638C161.361 373 166 368.411 166 362.75V342.25C166 336.589 161.361 332 155.638 332Z" stroke="#404040" stroke-opacity="0.8"/>
<path d="M328.883 251H244.117C237.977 251 233 255.95 233 262.056V362.944C233 369.05 237.977 374 244.117 374H328.883C335.023 374 340 369.05 340 362.944V262.056C340 255.95 335.023 251 328.883 251Z" fill="url(#paint2_linear_22368_1043)" fill-opacity="0.2"/>
<path d="M328.638 251H244.362C238.639 251 234 255.655 234 261.398V362.602C234 368.345 238.639 373 244.362 373H328.638C334.361 373 339 368.345 339 362.602V261.398C339 255.655 334.361 251 328.638 251Z" stroke="#404040" stroke-opacity="0.8"/>
<path d="M508.883 198H424.117C417.977 198 413 202.964 413 209.087V362.913C413 369.036 417.977 374 424.117 374H508.883C515.023 374 520 369.036 520 362.913V209.087C520 202.964 515.023 198 508.883 198Z" fill="url(#paint3_linear_22368_1043)" fill-opacity="0.2"/>
<path d="M508.638 199H424.362C418.639 199 414 203.637 414 209.357V362.643C414 368.363 418.639 373 424.362 373H508.638C514.361 373 519 368.363 519 362.643V209.357C519 203.637 514.361 199 508.638 199Z" stroke="#404040" stroke-opacity="0.8"/>
<g filter="url(#filter0_d_22368_1043)">
<path d="M199.921 236.11H374.535" stroke="white" stroke-width="2" stroke-linecap="round"/>
</g>
<path d="M588 51.3333C588 39.5507 595.163 30 604 30H1110C1118.84 30 1126 39.5507 1126 51.3333V422H588V51.3333Z" fill="white" fill-opacity="0.02"/>
<mask id="mask2_22368_1043" style="mask-type:luminance" maskUnits="userSpaceOnUse" x="588" y="30" width="538" height="392">
<path d="M588 51.3333C588 39.5507 595.163 30 604 30H1110C1118.84 30 1126 39.5507 1126 51.3333V422H588V51.3333Z" fill="white"/>
</mask>
<g mask="url(#mask2_22368_1043)">
<path d="M586 51.3335C586 38.0788 594.059 27.3335 604 27.3335H1110C1119.94 27.3335 1128 38.0788 1128 51.3335H1124C1124 41.0242 1117.73 32.6668 1110 32.6668H604C596.268 32.6668 590 41.0242 590 51.3335H586ZM586 422V51.3335C586 38.0788 594.059 27.3335 604 27.3335V32.6668C596.268 32.6668 590 41.0242 590 51.3335V422H586ZM1110 27.3335C1119.94 27.3335 1128 38.0788 1128 51.3335V422H1124V51.3335C1124 41.0242 1117.73 32.6668 1110 32.6668V27.3335Z" fill="#172554" fill-opacity="0.2"/>
</g>
<g clip-path="url(#clip3_22368_1043)">
<path fill-rule="evenodd" clip-rule="evenodd" d="M902.401 358.31C902.59 357.731 903.04 357.274 903.617 357.078L925.601 349.581C926.178 349.384 926.813 349.47 927.317 349.814L935.312 355.267C935.658 355.503 935.918 355.845 936.053 356.242L944.799 381.89C945.296 383.348 945.194 384.943 944.515 386.325C943.836 387.707 942.635 388.763 941.178 389.26L915.529 398.007C914.072 398.504 912.476 398.401 911.094 397.722C909.712 397.043 908.656 395.843 908.159 394.385L899.413 368.737C899.277 368.34 899.274 367.911 899.404 367.513L902.401 358.31ZM905.782 360.429L903.285 368.098L911.823 393.135C911.989 393.621 912.341 394.021 912.801 394.248C913.262 394.474 913.794 394.508 914.28 394.343L939.928 385.596C940.414 385.431 940.814 385.079 941.04 384.618C941.267 384.157 941.301 383.625 941.135 383.139L932.597 358.102L925.935 353.557L905.782 360.429Z" fill="white"/>
<path fill-rule="evenodd" clip-rule="evenodd" d="M899.413 368.737C899.068 367.725 899.608 366.625 900.62 366.28L933.596 355.035C934.608 354.69 935.708 355.23 936.053 356.242C936.398 357.254 935.857 358.354 934.846 358.699L901.869 369.944C900.858 370.289 899.758 369.749 899.413 368.737Z" fill="white"/>
<path fill-rule="evenodd" clip-rule="evenodd" d="M912.279 370.484C913.291 370.139 914.391 370.68 914.736 371.691C915.233 373.149 916.289 374.35 917.671 375.029C919.053 375.708 920.648 375.81 922.106 375.313C923.564 374.816 924.764 373.76 925.443 372.378C926.123 370.996 926.225 369.401 925.728 367.943C925.383 366.931 925.923 365.831 926.935 365.486C927.947 365.141 929.047 365.682 929.392 366.693C930.22 369.123 930.05 371.782 928.918 374.085C927.786 376.389 925.785 378.149 923.356 378.977C920.926 379.806 918.267 379.635 915.964 378.503C913.66 377.371 911.9 375.37 911.072 372.941C910.727 371.929 911.267 370.829 912.279 370.484Z" fill="white"/>
</g>
<g clip-path="url(#clip4_22368_1043)">
<path d="M635.413 282.001C635.782 280.826 636.603 279.846 637.694 279.277C638.786 278.707 640.059 278.594 641.234 278.964C642.408 279.333 643.388 280.153 643.958 281.245C644.528 282.337 644.64 283.61 644.271 284.784L641.951 292.166C641.582 293.341 640.762 294.321 639.67 294.89C638.578 295.46 637.305 295.573 636.13 295.203C634.956 294.834 633.976 294.014 633.406 292.922C632.837 291.83 632.724 290.557 633.093 289.383L635.413 282.001Z" fill="white"/>
<path d="M631.575 286.472C631.77 286.534 631.934 286.67 632.029 286.852C632.124 287.034 632.142 287.247 632.081 287.442L631.617 288.919C631.125 290.485 631.275 292.182 632.034 293.638C632.794 295.093 634.1 296.188 635.667 296.68C637.233 297.172 638.93 297.022 640.386 296.262C641.841 295.503 642.936 294.196 643.428 292.63L643.892 291.154C643.953 290.958 644.09 290.795 644.272 290.7C644.454 290.605 644.666 290.586 644.862 290.648C645.058 290.709 645.221 290.846 645.316 291.028C645.411 291.21 645.43 291.422 645.368 291.618L644.904 293.094C644.329 294.924 643.095 296.475 641.441 297.447C639.787 298.418 637.831 298.74 635.952 298.351L635.013 301.341L639.442 302.733C639.638 302.794 639.801 302.931 639.896 303.113C639.991 303.295 640.01 303.507 639.948 303.703C639.887 303.899 639.75 304.062 639.568 304.157C639.386 304.252 639.174 304.271 638.978 304.209L628.644 300.962C628.448 300.9 628.284 300.763 628.19 300.581C628.095 300.399 628.076 300.187 628.137 299.991C628.199 299.796 628.336 299.632 628.518 299.537C628.7 299.442 628.912 299.424 629.108 299.485L633.537 300.877L634.476 297.887C632.713 297.132 631.293 295.749 630.492 294.006C629.691 292.263 629.565 290.285 630.141 288.455L630.604 286.978C630.666 286.783 630.803 286.619 630.985 286.524C631.167 286.429 631.379 286.411 631.575 286.472Z" fill="white"/>
</g>
<g clip-path="url(#clip5_22368_1043)">
<path d="M916.564 254.67L930.729 248.03L954.817 264.752L940.62 271.407L916.564 254.67Z" fill="white"/>
<path d="M954.817 264.752L953.471 280.351L926.891 292.81L928.253 277.204L954.817 264.752Z" fill="white"/>
<path d="M926.891 292.811L914.072 283.852L916.564 254.67L929.446 263.638L926.891 292.811Z" fill="white"/>
<path opacity="0.1" d="M926.891 292.81L934.365 274.339L928.253 277.204L926.891 292.81Z" fill="black"/>
<path opacity="0.1" d="M954.817 264.752L940.636 271.4L934.994 267.482L954.817 264.752Z" fill="black"/>
<path opacity="0.1" d="M916.564 254.67L928.861 270.26L929.446 263.638L916.564 254.67Z" fill="black"/>
</g>
<g clip-path="url(#clip6_22368_1043)">
<path d="M780.35 250.825C779.104 253.703 775.771 255.022 772.893 253.776C770.016 252.529 768.697 249.196 769.943 246.318C771.189 243.441 774.522 242.122 777.4 243.368L782.604 245.621L780.35 250.825ZM782.952 251.952C784.198 249.074 787.532 247.755 790.409 249.001C793.287 250.247 794.606 253.581 793.36 256.458L787.727 269.468C786.48 272.346 783.147 273.664 780.27 272.418C777.392 271.172 776.073 267.839 777.319 264.961L782.952 251.952Z" fill="white"/>
<path d="M797.203 233.311C794.326 232.065 793.007 228.732 794.253 225.854C795.499 222.976 798.832 221.657 801.71 222.904C804.588 224.15 805.907 227.483 804.66 230.361L802.407 235.564L797.203 233.311ZM796.06 235.952C798.938 237.199 800.256 240.532 799.01 243.409C797.764 246.287 794.431 247.606 791.553 246.36L778.504 240.71C775.627 239.463 774.308 236.13 775.554 233.252C776.8 230.375 780.133 229.056 783.011 230.302L796.06 235.952Z" fill="white"/>
<path d="M814.661 250.187C815.907 247.309 819.24 245.99 822.118 247.236C824.996 248.482 826.314 251.815 825.068 254.693C823.822 257.571 820.489 258.89 817.611 257.644L812.407 255.39L814.661 250.187ZM812.059 249.06C810.813 251.938 807.48 253.256 804.602 252.01C801.724 250.764 800.405 247.431 801.651 244.553L807.302 231.505C808.548 228.627 811.881 227.308 814.759 228.554C817.636 229.8 818.955 233.133 817.709 236.011L812.059 249.06Z" fill="white"/>
<path d="M797.825 267.661C800.703 268.907 802.021 272.24 800.775 275.118C799.529 277.995 796.196 279.314 793.318 278.068C790.44 276.822 789.122 273.489 790.368 270.611L792.621 265.407L797.825 267.661ZM798.952 265.059C796.074 263.813 794.755 260.48 796.001 257.602C797.247 254.724 800.58 253.405 803.458 254.651L816.507 260.302C819.385 261.548 820.703 264.881 819.457 267.759C818.211 270.636 814.878 271.955 812 270.709L798.952 265.059Z" fill="white"/>
</g>
<path d="M831.146 335.386C830.905 334.63 830.631 333.944 830.333 333.319C832.871 335.731 834.856 338.796 835.997 342.366C838.419 349.942 836.427 357.869 831.46 363.38L831.935 343.24C832.171 339.936 831.812 337.469 831.146 335.386Z" fill="white"/>
<path d="M815.957 370.484L816.397 350.611L828.236 365.887C828.31 365.975 828.391 366.052 828.474 366.122C826.579 367.556 824.417 368.702 822.026 369.467C820.01 370.111 817.97 370.438 815.957 370.484Z" fill="white"/>
<path d="M825.491 338.341C826.709 339.459 828.182 340.925 828.994 343.463C829.555 345.22 829.668 347.475 829.665 350.71L829.692 358.1L815.214 338.397C816.43 337.938 817.502 337.451 817.502 337.451C818.567 336.967 817.917 335.382 816.831 335.801C816.831 335.801 813.588 337.125 811.44 337.811C809.422 338.456 805.948 339.279 805.948 339.279C804.82 339.568 805.231 341.302 806.359 341.013C806.359 341.013 807.448 340.809 808.575 340.52L814.577 348.263L814.39 363.178L799.802 343.324C801.019 342.864 802.09 342.378 802.09 342.378C803.154 341.893 802.503 340.309 801.418 340.727C801.418 340.727 798.175 342.051 796.028 342.738C795.643 342.861 795.185 342.997 794.698 343.135C796.588 336.387 801.723 330.689 808.898 328.395C814.244 326.686 819.765 327.174 824.489 329.354C824.459 329.362 824.43 329.368 824.4 329.375C824.34 329.389 824.279 329.403 824.218 329.423C822.2 330.067 821.331 332.282 821.934 334.169C822.432 335.729 823.69 336.803 825.122 338.026C825.244 338.13 825.367 338.235 825.491 338.341Z" fill="white"/>
<path d="M812.408 370.276C804.493 369.137 797.524 363.622 794.926 355.494C793.974 352.517 793.71 349.487 794.033 346.569L812.408 370.276Z" fill="white"/>
<path fill-rule="evenodd" clip-rule="evenodd" d="M790.819 356.808C786.469 343.198 793.975 328.638 807.585 324.288C821.195 319.938 835.754 327.444 840.105 341.054C844.455 354.664 836.949 369.224 823.339 373.574C809.729 377.924 795.169 370.418 790.819 356.808ZM817.655 324.705C814.415 324.41 811.185 324.767 808.058 325.767C804.93 326.767 802.092 328.348 799.623 330.468C798.436 331.487 797.342 332.629 796.371 333.861C795.41 335.082 794.56 336.403 793.847 337.787C793.133 339.171 792.55 340.629 792.113 342.121C791.673 343.626 791.377 345.18 791.235 346.737C790.94 349.978 791.298 353.207 792.298 356.335C793.297 359.463 794.879 362.301 796.999 364.77C798.018 365.956 799.16 367.05 800.392 368.021C801.613 368.983 802.934 369.833 804.318 370.546C805.702 371.26 807.16 371.843 808.651 372.28C810.157 372.72 811.711 373.016 813.268 373.157C816.509 373.452 819.738 373.095 822.866 372.095C825.994 371.096 828.832 369.514 831.3 367.394C832.487 366.375 833.581 365.233 834.552 364.001C835.514 362.78 836.364 361.459 837.077 360.075C837.79 358.691 838.374 357.233 838.81 355.741C839.251 354.236 839.546 352.682 839.688 351.124C839.983 347.884 839.626 344.655 838.626 341.527C837.626 338.399 836.044 335.561 833.924 333.092C832.905 331.906 831.764 330.812 830.531 329.841C829.31 328.879 827.99 328.029 826.606 327.316C825.222 326.602 823.764 326.019 822.272 325.582C820.766 325.142 819.213 324.846 817.655 324.705Z" fill="white"/>
<path d="M814.74 110L904.26 110C910.744 110 916 104.801 916 98.3871L916 76.6129C916 70.1993 910.744 65 904.26 65L814.74 65C808.256 65 803 70.1993 803 76.6129L803 98.3871C803 104.801 808.256 110 814.74 110Z" fill="url(#paint4_linear_22368_1043)" fill-opacity="0.2"/>
<path d="M814.053 110L903.947 110C910.052 110 915 105.075 915 99L915 77C915 70.9249 910.052 66 903.947 66L814.053 66C807.948 66 803 70.9249 803 77L803 99C803 105.075 807.948 110 814.053 110Z" stroke="#404040" stroke-opacity="0.8"/>
<path d="M998.844 251L1089.16 251C1095.7 251 1101 245.754 1101 239.283L1101 76.7166C1101 70.2457 1095.7 65 1089.16 65L998.844 65C992.303 65 987 70.2457 987 76.7165L987 239.283C987 245.754 992.303 251 998.844 251Z" fill="url(#paint5_linear_22368_1043)" fill-opacity="0.2"/>
<path d="M999.053 250L1088.95 250C1095.05 250 1100 245.096 1100 239.048L1100 76.9524C1100 70.9036 1095.05 66 1088.95 66L999.053 66C992.948 66 988 70.9036 988 76.9524L988 239.048C988 245.096 992.948 250 999.053 250Z" stroke="#404040" stroke-opacity="0.8"/>
<path d="M623.844 157L714.156 157C720.697 157 726 151.77 726 145.317L726 76.6825C726 70.2305 720.697 65 714.156 65L623.844 65C617.303 65 612 70.2304 612 76.6825L612 145.317C612 151.77 617.303 157 623.844 157Z" fill="url(#paint6_linear_22368_1043)" fill-opacity="0.2"/>
<path d="M624.053 156L713.947 156C720.052 156 725 151.126 725 145.113L725 76.8871C725 70.8743 720.052 66 713.947 66L624.053 66C617.948 66 613 70.8743 613 76.8871L613 145.113C613 151.126 617.948 156 624.053 156Z" stroke="#404040" stroke-opacity="0.8"/>
<g filter="url(#filter1_d_22368_1043)">
<path d="M950.965 122.851L766.429 122.851" stroke="white" stroke-width="2" stroke-linecap="round"/>
</g>
<path d="M128.321 269.943C124.448 269.284 120.436 269.109 116.389 269.478C116.315 269.484 116.253 269.535 116.234 269.609C115.985 270.582 115.754 271.828 115.618 272.794C111.291 273.286 107.152 274.395 103.244 276.11C102.637 275.322 101.801 274.383 101.096 273.665C101.043 273.613 100.964 273.599 100.896 273.629C97.2091 275.33 93.8223 277.488 90.7952 279.998C90.7688 280.019 90.7489 280.047 90.7394 280.079C86.5316 292.442 87.3492 303.183 90.998 313.028C91.0155 313.077 91.0559 313.116 91.1024 313.136C96.6427 315.295 101.68 316.158 106.448 316.347C106.524 316.349 106.592 316.303 106.621 316.233C107.281 314.533 107.808 312.785 108.181 310.995C108.203 310.89 108.129 310.793 108.023 310.782C106.401 310.618 104.817 310.313 103.262 309.901C103.139 309.867 103.089 309.717 103.168 309.618C103.395 309.329 103.619 309.032 103.83 308.736C103.868 308.682 103.934 308.655 103.999 308.665C113.94 310.336 123.53 307.767 131.199 301.377C131.249 301.334 131.32 301.324 131.382 301.351C131.713 301.502 132.056 301.649 132.399 301.785C132.517 301.832 132.551 301.986 132.462 302.077C131.324 303.226 130.101 304.268 128.776 305.219C128.69 305.281 128.677 305.404 128.749 305.484C129.983 306.841 131.313 308.091 132.716 309.239C132.775 309.288 132.858 309.293 132.923 309.253C136.979 306.699 140.91 303.434 144.629 298.794C144.661 298.753 144.675 298.701 144.666 298.65C142.666 286.673 136.93 277.341 128.409 269.988C128.386 269.962 128.355 269.947 128.321 269.943ZM107.213 302.093C104.546 302.808 101.693 300.948 100.887 297.941C100.082 294.935 101.58 291.909 104.29 291.183C107.021 290.451 109.858 292.338 110.616 295.335C111.421 298.341 109.923 301.367 107.213 302.093ZM125.198 297.274C122.531 297.989 119.677 296.129 118.872 293.122C118.066 290.116 119.565 287.09 122.274 286.364C125.005 285.632 127.843 287.519 128.6 290.516C129.406 293.523 127.928 296.543 125.198 297.274Z" fill="white"/>
<path d="M287.168 153.021L272.5 159.395L257.57 197.274L270.196 202.25L266.049 212.772L280.718 206.397L289.136 209.715L315.539 198.24L327.151 168.779L287.168 153.021ZM312.16 194.477L300.425 199.577L292.008 196.259L281.739 200.722L284.642 193.356L275.173 189.624L287.614 158.059L321.284 171.329L312.16 194.477Z" fill="white"/>
<path d="M312.068 176.206L307.859 174.547L302.882 187.174L307.091 188.832L312.068 176.206Z" fill="white"/>
<path d="M300.494 171.645L296.285 169.986L291.309 182.612L295.517 184.271L300.494 171.645Z" fill="white"/>
<path fill-rule="evenodd" clip-rule="evenodd" d="M1030.13 295.848C1032.2 292.258 1035.61 289.638 1039.62 288.565C1043.62 287.492 1047.89 288.054 1051.48 290.127C1055.07 292.2 1057.69 295.614 1058.76 299.619C1059.84 303.623 1059.28 307.89 1057.2 311.481C1055.13 315.071 1051.72 317.691 1047.71 318.764C1043.71 319.837 1039.44 319.276 1035.85 317.203C1032.26 315.13 1029.64 311.715 1028.56 307.711C1027.49 303.706 1028.05 299.439 1030.13 295.848ZM1042.34 313.726C1043.66 313.9 1045 313.812 1046.29 313.467C1048.89 312.77 1051.11 311.069 1052.45 308.739C1053.8 306.408 1054.16 303.638 1053.47 301.038C1052.77 298.438 1051.07 296.222 1048.74 294.876C1046.41 293.531 1043.64 293.166 1041.04 293.862C1039.75 294.207 1038.54 294.802 1037.49 295.614C1036.43 296.425 1035.54 297.437 1034.88 298.591C1034.21 299.745 1033.78 301.019 1033.6 302.34C1033.43 303.661 1033.52 305.004 1033.86 306.291C1034.21 307.578 1034.8 308.785 1035.61 309.842C1036.43 310.899 1037.44 311.787 1038.59 312.453C1039.74 313.119 1041.02 313.552 1042.34 313.726Z" fill="white"/>
<path d="M1058.67 285.872C1059.16 285.023 1059.29 284.014 1059.04 283.068C1058.78 282.121 1058.16 281.314 1057.32 280.824C1056.47 280.334 1055.46 280.201 1054.51 280.455C1053.57 280.708 1052.76 281.328 1052.27 282.176C1051.78 283.025 1051.65 284.034 1051.9 284.98C1052.15 285.927 1052.77 286.734 1053.62 287.224C1054.47 287.714 1055.48 287.847 1056.42 287.593C1057.37 287.34 1058.18 286.72 1058.67 285.872Z" fill="white"/>
<path fill-rule="evenodd" clip-rule="evenodd" d="M1023.73 277.709C1026.82 276.726 1027.81 276.426 1035.79 274.288C1043.77 272.149 1044.78 271.917 1047.95 271.219C1051.12 270.524 1053.39 270.451 1055.45 270.673C1057.61 270.886 1059.69 271.566 1061.56 272.667C1063.45 273.734 1065.08 275.2 1066.34 276.963C1067.57 278.636 1068.64 280.64 1069.62 283.729C1070.6 286.824 1070.9 287.814 1073.04 295.793C1075.18 303.772 1075.41 304.78 1076.11 307.951C1076.81 311.117 1076.88 313.387 1076.66 315.45C1076.44 317.607 1075.76 319.692 1074.66 321.559C1073.59 323.449 1072.13 325.081 1070.37 326.342C1068.69 327.569 1066.69 328.639 1063.6 329.62C1060.5 330.603 1059.52 330.904 1051.54 333.042C1043.56 335.179 1042.55 335.414 1039.38 336.11C1036.21 336.806 1033.94 336.881 1031.88 336.657C1029.72 336.443 1027.64 335.763 1025.77 334.662C1023.88 333.594 1022.25 332.128 1020.99 330.366C1019.76 328.693 1018.69 326.689 1017.71 323.6C1016.73 320.505 1016.43 319.517 1014.29 311.536C1012.15 303.555 1011.92 302.549 1011.22 299.38C1010.52 296.214 1010.45 293.941 1010.67 291.879C1010.89 289.722 1011.57 287.637 1012.67 285.77C1013.74 283.88 1015.2 282.248 1016.96 280.987C1018.64 279.76 1020.64 278.69 1023.73 277.709ZM1049.13 276.571C1045.99 277.26 1045.06 277.48 1037.21 279.581C1029.37 281.683 1028.45 281.962 1025.39 282.933C1022.56 283.831 1021.13 284.726 1020.2 285.407C1019.05 286.219 1018.1 287.278 1017.41 288.508C1016.66 289.811 1016.29 290.961 1016.12 292.474C1015.99 293.619 1015.93 295.301 1016.57 298.2C1017.26 301.336 1017.48 302.274 1019.58 310.118C1021.68 317.961 1021.96 318.884 1022.93 321.944C1023.83 324.772 1024.73 326.199 1025.41 327.127C1026.22 328.277 1027.28 329.231 1028.51 329.917C1029.72 330.638 1031.07 331.079 1032.47 331.208C1033.62 331.335 1035.3 331.395 1038.2 330.759C1041.34 330.069 1042.27 329.85 1050.12 327.748C1057.96 325.646 1058.88 325.367 1061.94 324.396C1064.77 323.498 1066.2 322.603 1067.13 321.922C1068.28 321.11 1069.23 320.051 1069.92 318.822C1070.64 317.612 1071.08 316.257 1071.21 314.855C1071.34 313.71 1071.39 312.028 1070.76 309.129C1070.07 305.993 1069.85 305.055 1067.75 297.212C1065.65 289.368 1065.37 288.445 1064.4 285.385C1063.5 282.557 1062.6 281.13 1061.92 280.202C1061.02 278.973 1060.13 278.165 1058.82 277.412C1057.52 276.661 1056.37 276.285 1054.86 276.122C1053.71 275.994 1052.03 275.935 1049.13 276.571Z" fill="white"/>
<path fill-rule="evenodd" clip-rule="evenodd" d="M888.994 160.467C891.526 161.931 893.106 164.667 893.108 167.592C893.121 172.92 890.401 183.233 890.401 183.233C890.401 183.233 887.629 193.576 884.965 198.144C883.501 200.675 880.765 202.255 877.84 202.257C872.553 202.281 852.722 196.967 852.722 196.967C852.722 196.967 832.891 191.653 828.323 188.989C825.792 187.525 824.212 184.789 824.21 181.864C824.197 176.536 826.958 166.234 826.958 166.234C826.958 166.234 829.718 155.931 832.341 151.353C833.805 148.821 836.542 147.241 839.467 147.239C844.754 147.216 864.596 152.489 864.596 152.489C864.596 152.489 884.427 157.803 888.994 160.467ZM868.778 177.439L849.774 182.56L854.88 163.503L868.778 177.439Z" fill="white"/>
<path d="M665.591 184.109C653.938 185.904 645.862 196.499 647.587 207.726C648.137 211.316 649.652 214.669 651.977 217.47L650.603 228.483L661.374 223.925C664.743 225.076 668.341 225.392 671.859 224.848L671.867 224.846C683.52 223.051 691.596 212.455 689.871 201.228C689.036 195.79 686.05 191.01 681.465 187.778C676.881 184.544 671.246 183.239 665.591 184.109ZM671.337 221.407L671.33 221.408C668.177 221.894 664.959 221.554 662.023 220.428L661.323 220.16L654.933 222.863L655.746 216.344L655.23 215.769C653.063 213.363 651.646 210.376 651.155 207.176C649.721 197.844 656.436 189.04 666.128 187.547C670.82 186.825 675.504 187.908 679.315 190.595C683.126 193.282 685.607 197.254 686.301 201.777C687.735 211.109 681.022 219.915 671.336 221.407L671.337 221.407ZM679.023 207.246C678.455 207.074 675.668 206.243 675.157 206.146C674.648 206.053 674.282 206.019 674.009 206.583C673.736 207.146 672.9 208.449 672.645 208.834C672.388 209.222 672.086 209.31 671.518 209.138C670.95 208.965 669.165 208.691 666.882 207.267C665.103 206.161 663.786 204.659 663.399 204.196C663.013 203.735 663.246 203.417 663.471 203.123C663.673 202.861 663.908 202.449 664.126 202.111C664.343 201.773 664.398 201.548 664.524 201.18C664.647 200.815 664.513 200.53 664.341 200.297C664.169 200.062 662.728 197.72 662.129 196.771C661.549 195.845 661.134 196.045 660.807 196.078C660.497 196.112 660.145 196.162 659.791 196.217C659.441 196.271 658.887 196.486 658.481 197.071C658.076 197.655 656.9 199.095 657.285 201.599C657.671 204.104 659.937 206.231 660.254 206.53C660.57 206.828 664.823 211.435 670.462 212.823C671.803 213.151 672.834 213.313 673.639 213.43C674.964 213.623 676.107 213.389 676.997 213.119C677.988 212.817 679.933 211.408 680.188 210.153C680.446 208.897 680.289 207.878 680.125 207.686C679.964 207.494 679.591 207.421 679.023 207.246V207.246Z" fill="white"/>
<path fill-rule="evenodd" clip-rule="evenodd" d="M719.018 325.264C704.994 320.299 689.614 327.705 684.611 341.834C680.612 353.128 684.491 365.26 693.37 372.212C694.54 372.913 695.286 372.272 695.526 371.595C695.736 371.003 696.413 368.958 697.162 366.843C689.568 365.868 689.716 360.779 689.716 360.779C689.631 357.416 688.221 356.061 688.221 356.061C686.466 353.678 688.943 354.555 688.943 354.555C691.444 355.631 691.92 358.56 691.92 358.56C692.809 363.254 696.851 363.448 698.561 363.292C699.354 361.716 700.431 360.812 701.37 360.431C695.952 357.846 690.811 353.55 694.286 343.736C695.275 340.945 697.09 339.017 699.315 337.806C699.288 337.082 699.335 334.147 701.964 331.127C701.964 331.127 704.345 331.208 708.005 336.217C710.27 336.39 712.503 336.86 714.645 337.616C716.787 338.374 718.864 339.443 720.686 340.707C726.683 339.117 728.584 340.552 728.584 340.552C728.727 344.554 726.916 346.864 726.44 347.409C727.449 349.766 727.605 352.392 726.617 355.184C723.142 364.998 716.458 365.059 710.565 363.686C711.204 364.817 711.462 366.622 710.609 369.033C709.396 372.459 708.38 375.195 708.081 376.04C707.841 376.717 708.019 377.685 709.368 377.877C720.644 378.06 731.292 371.073 735.291 359.779C740.335 345.664 733 330.215 719.018 325.264Z" fill="white"/>
</g>
<defs>
<filter id="filter0_d_22368_1043" x="193.521" y="230.71" width="187.414" height="12.8" filterUnits="userSpaceOnUse" color-interpolation-filters="sRGB">
<feFlood flood-opacity="0" result="BackgroundImageFix"/>
<feColorMatrix in="SourceAlpha" type="matrix" values="0 0 0 0 0 0 0 0 0 0 0 0 0 0 0 0 0 0 127 0" result="hardAlpha"/>
<feOffset dy="1"/>
<feGaussianBlur stdDeviation="2.7"/>
<feComposite in2="hardAlpha" operator="out"/>
<feColorMatrix type="matrix" values="0 0 0 0 1 0 0 0 0 1 0 0 0 0 1 0 0 0 1 0"/>
<feBlend mode="normal" in2="BackgroundImageFix" result="effect1_dropShadow_22368_1043"/>
<feBlend mode="normal" in="SourceGraphic" in2="effect1_dropShadow_22368_1043" result="shape"/>
</filter>
<filter id="filter1_d_22368_1043" x="760.029" y="117.451" width="197.335" height="12.8" filterUnits="userSpaceOnUse" color-interpolation-filters="sRGB">
<feFlood flood-opacity="0" result="BackgroundImageFix"/>
<feColorMatrix in="SourceAlpha" type="matrix" values="0 0 0 0 0 0 0 0 0 0 0 0 0 0 0 0 0 0 127 0" result="hardAlpha"/>
<feOffset dy="1"/>
<feGaussianBlur stdDeviation="2.7"/>
<feComposite in2="hardAlpha" operator="out"/>
<feColorMatrix type="matrix" values="0 0 0 0 1 0 0 0 0 1 0 0 0 0 1 0 0 0 1 0"/>
<feBlend mode="normal" in2="BackgroundImageFix" result="effect1_dropShadow_22368_1043"/>
<feBlend mode="normal" in="SourceGraphic" in2="effect1_dropShadow_22368_1043" result="shape"/>
</filter>
<linearGradient id="paint0_linear_22368_1043" x1="21" y1="226" x2="559" y2="226" gradientUnits="userSpaceOnUse">
<stop stop-color="#0EA5E9" stop-opacity="0.8"/>
<stop offset="1" stop-color="#172554" stop-opacity="0.5"/>
</linearGradient>
<linearGradient id="paint1_linear_22368_1043" x1="113.5" y1="331" x2="113.5" y2="374" gradientUnits="userSpaceOnUse">
<stop stop-color="white" stop-opacity="0.2"/>
<stop offset="1" stop-color="#999999" stop-opacity="0.5"/>
</linearGradient>
<linearGradient id="paint2_linear_22368_1043" x1="286.5" y1="251" x2="286.5" y2="374" gradientUnits="userSpaceOnUse">
<stop stop-color="white" stop-opacity="0.2"/>
<stop offset="1" stop-color="#999999" stop-opacity="0.5"/>
</linearGradient>
<linearGradient id="paint3_linear_22368_1043" x1="466.5" y1="198" x2="466.5" y2="374" gradientUnits="userSpaceOnUse">
<stop stop-color="white" stop-opacity="0.2"/>
<stop offset="1" stop-color="#999999" stop-opacity="0.5"/>
</linearGradient>
<linearGradient id="paint4_linear_22368_1043" x1="859.5" y1="110" x2="859.5" y2="65" gradientUnits="userSpaceOnUse">
<stop stop-color="white" stop-opacity="0.2"/>
<stop offset="1" stop-color="#999999" stop-opacity="0.5"/>
</linearGradient>
<linearGradient id="paint5_linear_22368_1043" x1="1044" y1="251" x2="1044" y2="65" gradientUnits="userSpaceOnUse">
<stop stop-color="white" stop-opacity="0.2"/>
<stop offset="1" stop-color="#999999" stop-opacity="0.5"/>
</linearGradient>
<linearGradient id="paint6_linear_22368_1043" x1="669" y1="157" x2="669" y2="65" gradientUnits="userSpaceOnUse">
<stop stop-color="white" stop-opacity="0.2"/>
<stop offset="1" stop-color="#999999" stop-opacity="0.5"/>
</linearGradient>
<clipPath id="clip0_22368_1043">
<rect width="1126" height="422" fill="white"/>
</clipPath>
<clipPath id="clip1_22368_1043">
<rect x="124" y="131.301" width="36.557" height="36.557" rx="6" transform="rotate(-16.3662 124 131.301)" fill="white"/>
</clipPath>
<clipPath id="clip2_22368_1043">
<rect width="43.2635" height="43.2635" fill="white" transform="translate(355 73.6318) rotate(-30)"/>
</clipPath>
<clipPath id="clip3_22368_1043">
<rect width="46.4546" height="46.4546" fill="white" transform="translate(892 358.994) rotate(-18.8303)"/>
</clipPath>
<clipPath id="clip4_22368_1043">
<rect width="24.7605" height="24.7605" fill="white" transform="translate(629.423 275.252) rotate(17.445)"/>
</clipPath>
<clipPath id="clip5_22368_1043">
<rect width="45" height="45" fill="white" transform="translate(902 258.1) rotate(-25.1151)"/>
</clipPath>
<clipPath id="clip6_22368_1043">
<rect width="54" height="54" fill="white" transform="translate(783.458 215) rotate(23.4134)"/>
</clipPath>
</defs>
</svg>
