<svg width="510" height="80" viewBox="0 0 510 80" fill="none" xmlns="http://www.w3.org/2000/svg">
<g clip-path="url(#clip0_22369_1213)">
<mask id="mask0_22369_1213" style="mask-type:luminance" maskUnits="userSpaceOnUse" x="215" y="0" width="80" height="80">
<path d="M295 64V16C295 7.16344 287.837 0 279 0L231 0C222.163 0 215 7.16344 215 16V64C215 72.8366 222.163 80 231 80H279C287.837 80 295 72.8366 295 64Z" fill="white"/>
</mask>
<g mask="url(#mask0_22369_1213)">
<path d="M295 64V16C295 7.16344 287.837 0 279 0L231 0C222.163 0 215 7.16344 215 16V64C215 72.8366 222.163 80 231 80H279C287.837 80 295 72.8366 295 64Z" fill="#1D4ED8"/>
<g filter="url(#filter0_f_22369_1213)">
<path d="M230 40C230 53.8071 241.193 65 255 65C268.807 65 280 53.8071 280 40C280 26.1929 268.807 15 255 15C241.193 15 230 26.1929 230 40Z" fill="#803007" fill-opacity="0.73"/>
</g>
<path d="M280 55V25C280 19.4772 275.523 15 270 15L240 15C234.477 15 230 19.4772 230 25V55C230 60.5228 234.477 65 240 65H270C275.523 65 280 60.5228 280 55Z" fill="#3B82F6"/>
<path d="M280 55V25C280 19.4772 275.523 15 270 15L240 15C234.477 15 230 19.4772 230 25V55C230 60.5228 234.477 65 240 65H270C275.523 65 280 60.5228 280 55Z" stroke="url(#paint0_linear_22369_1213)"/>
<path d="M251 33.3333L247.5 27.1667L251 21H258L261.5 27.1667H254.5L251 33.3333Z" fill="white"/>
<path d="M268.5 39.5L265 33.3333H258L261.5 27.1667H268.5L272 33.3333L268.5 39.5Z" fill="white"/>
<path d="M261.5 51.8333H268.5L272 45.6667L268.5 39.5H261.5L265 45.6667L261.5 51.8333Z" fill="white"/>
<path d="M247.5 51.8333H254.5L258 45.6667L261.5 51.8333L258 58H251L247.5 51.8333Z" fill="white"/>
<path d="M240.5 39.5H247.5L244 33.3333L247.5 27.1667H240.5L237 33.3333L240.5 39.5Z" fill="white"/>
<path d="M240.5 39.5L237 45.6667L240.5 51.8333H247.5L251 45.6667H244L240.5 39.5Z" fill="white"/>
<path d="M300 -10C303.314 -10 306 -7.31371 306 -4V14C306 17.3137 303.314 20 300 20H282C278.686 20 276 17.3137 276 14V-4C276 -7.31371 278.686 -10 282 -10H300Z" fill="#3B82F6"/>
<mask id="mask1_22369_1213" style="mask-type:luminance" maskUnits="userSpaceOnUse" x="276" y="-10" width="30" height="30">
<path d="M300 -10C303.314 -10 306 -7.31371 306 -4V14C306 17.3137 303.314 20 300 20H282C278.686 20 276 17.3137 276 14V-4C276 -7.31371 278.686 -10 282 -10H300Z" fill="white"/>
</mask>
<g mask="url(#mask1_22369_1213)">
<path d="M282 20.5C278.41 20.5 275.5 17.5899 275.5 14V-3.5C275.5 -7.08985 278.41 -10 282 -10C278.962 -10 276.5 -7.31371 276.5 -4V14C276.5 17.0376 278.962 19.5 282 19.5V20.5ZM306 14C306 17.5899 303.09 20.5 299.5 20.5H282C278.41 20.5 275.5 17.5899 275.5 14H276.5C276.5 17.0376 278.962 19.5 282 19.5H300C303.314 19.5 306 17.0376 306 14Z" fill="#60A5FA"/>
</g>
<path d="M228 -10C231.314 -10 234 -7.31371 234 -4V14C234 17.3137 231.314 20 228 20H210C206.686 20 204 17.3137 204 14V-4C204 -7.31371 206.686 -10 210 -10H228Z" fill="#3B82F6"/>
<mask id="mask2_22369_1213" style="mask-type:luminance" maskUnits="userSpaceOnUse" x="204" y="-10" width="30" height="30">
<path d="M228 -10C231.314 -10 234 -7.31371 234 -4V14C234 17.3137 231.314 20 228 20H210C206.686 20 204 17.3137 204 14V-4C204 -7.31371 206.686 -10 210 -10H228Z" fill="white"/>
</mask>
<g mask="url(#mask2_22369_1213)">
<path d="M228 -10.5C231.59 -10.5 234.5 -7.58985 234.5 -4V14C234.5 17.5899 231.59 20.5 228 20.5V19.5C231.038 19.5 233.5 17.0376 233.5 14V-4C233.5 -7.03757 231.038 -9.5 228 -9.5V-10.5ZM204 -4C204 -7.58985 206.91 -10.5 210.5 -10.5H228C231.59 -10.5 234.5 -7.58985 234.5 -4H233.5C233.5 -7.03757 231.038 -9.5 228 -9.5H210C206.686 -9.5 204 -7.03757 204 -4ZM234.5 14C234.5 17.5899 231.59 20.5 228 20.5H210.5C206.91 20.5 204 17.5899 204 14C204 17.0376 206.686 19.5 210 19.5H228C231.038 19.5 233.5 17.0376 233.5 14H234.5Z" fill="#60A5FA"/>
</g>
<path d="M300 60C303.314 60 306 62.6863 306 66V84C306 87.3137 303.314 90 300 90H282C278.686 90 276 87.3137 276 84V66C276 62.6863 278.686 60 282 60H300Z" fill="#3B82F6"/>
<mask id="mask3_22369_1213" style="mask-type:luminance" maskUnits="userSpaceOnUse" x="276" y="60" width="30" height="30">
<path d="M300 60C303.314 60 306 62.6863 306 66V84C306 87.3137 303.314 90 300 90H282C278.686 90 276 87.3137 276 84V66C276 62.6863 278.686 60 282 60H300Z" fill="white"/>
</mask>
<g mask="url(#mask3_22369_1213)">
<path d="M282 90C278.41 90 275.5 87.0899 275.5 83.5V66C275.5 62.4101 278.41 59.5 282 59.5V60.5C278.962 60.5 276.5 62.9624 276.5 66V84C276.5 87.3137 278.962 90 282 90ZM275.5 66C275.5 62.4101 278.41 59.5 282 59.5H299.5C303.09 59.5 306 62.4101 306 66C306 62.9624 303.314 60.5 300 60.5H282C278.962 60.5 276.5 62.9624 276.5 66H275.5Z" fill="#60A5FA"/>
</g>
<path d="M228 60C231.314 60 234 62.6863 234 66V84C234 87.3137 231.314 90 228 90H210C206.686 90 204 87.3137 204 84V66C204 62.6863 206.686 60 210 60H228Z" fill="#3B82F6"/>
<mask id="mask4_22369_1213" style="mask-type:luminance" maskUnits="userSpaceOnUse" x="204" y="60" width="30" height="30">
<path d="M228 60C231.314 60 234 62.6863 234 66V84C234 87.3137 231.314 90 228 90H210C206.686 90 204 87.3137 204 84V66C204 62.6863 206.686 60 210 60H228Z" fill="white"/>
</mask>
<g mask="url(#mask4_22369_1213)">
<path d="M228 59.5C231.59 59.5 234.5 62.4101 234.5 66V83.5C234.5 87.0899 231.59 90 228 90C231.038 90 233.5 87.3137 233.5 84V66C233.5 62.9624 231.038 60.5 228 60.5V59.5ZM204 66C204 62.4101 206.91 59.5 210.5 59.5H228C231.59 59.5 234.5 62.4101 234.5 66H233.5C233.5 62.9624 231.038 60.5 228 60.5H210C206.686 60.5 204 62.9624 204 66Z" fill="#60A5FA"/>
</g>
</g>
<path d="M294.5 64V16C294.5 7.43959 287.56 0.5 279 0.5L231 0.5C222.44 0.5 215.5 7.43959 215.5 16V64C215.5 72.5604 222.44 79.5 231 79.5H279C287.56 79.5 294.5 72.5604 294.5 64Z" stroke="url(#paint1_linear_22369_1213)" stroke-opacity="0.95"/>
<path d="M355 69.5C371.292 69.5 384.5 56.2924 384.5 40C384.5 23.7076 371.292 10.5 355 10.5C338.708 10.5 325.5 23.7076 325.5 40C325.5 56.2924 338.708 69.5 355 69.5Z" fill="white" fill-opacity="0.1" stroke="url(#paint2_linear_22369_1213)"/>
<path d="M352 44.2857L359.785 40L352 35.7143V44.2857ZM369.34 33.1C369.535 33.7714 369.67 34.6714 369.76 35.8143C369.865 36.9571 369.91 37.9429 369.91 38.8L370 40C370 43.1286 369.76 45.4286 369.34 46.9C368.965 48.1857 368.095 49.0143 366.745 49.3714C366.04 49.5571 364.75 49.6857 362.77 49.7714C360.82 49.8714 359.035 49.9143 357.385 49.9143L355 50C348.715 50 344.8 49.7714 343.255 49.3714C341.905 49.0143 341.035 48.1857 340.66 46.9C340.465 46.2286 340.33 45.3286 340.24 44.1857C340.135 43.0429 340.09 42.0571 340.09 41.2L340 40C340 36.8714 340.24 34.5714 340.66 33.1C341.035 31.8143 341.905 30.9857 343.255 30.6286C343.96 30.4429 345.25 30.3143 347.23 30.2286C349.18 30.1286 350.965 30.0857 352.615 30.0857L355 30C361.285 30 365.2 30.2286 366.745 30.6286C368.095 30.9857 368.965 31.8143 369.34 33.1Z" fill="white"/>
<path d="M430 64.5C443.531 64.5 454.5 53.531 454.5 40C454.5 26.469 443.531 15.5 430 15.5C416.469 15.5 405.5 26.469 405.5 40C405.5 53.531 416.469 64.5 430 64.5Z" fill="white" fill-opacity="0.1" stroke="url(#paint3_linear_22369_1213)"/>
<path d="M435.75 31H438.817L432.117 38.6239L440 49H433.829L428.991 42.7082L423.463 49H420.393L427.559 40.8427L420 31.0014H426.329L430.694 36.7513L435.75 31ZM434.671 47.1728H436.371L425.4 32.7322H423.577L434.671 47.1728Z" fill="white"/>
<path d="M492.5 56.5C501.889 56.5 509.5 48.8888 509.5 39.5C509.5 30.1112 501.889 22.5 492.5 22.5C483.111 22.5 475.5 30.1112 475.5 39.5C475.5 48.8888 483.111 56.5 492.5 56.5Z" fill="white" fill-opacity="0.1" stroke="url(#paint4_linear_22369_1213)"/>
<path d="M502 40C502 34.48 497.52 30 492 30C486.48 30 482 34.48 482 40C482 44.84 485.44 48.87 490 49.8V43H488V40H490V37.5C490 35.57 491.57 34 493.5 34H496V37H494C493.45 37 493 37.45 493 38V40H496V43H493V49.95C498.05 49.45 502 45.19 502 40Z" fill="white"/>
<path d="M155 69.5C171.292 69.5 184.5 56.2924 184.5 40C184.5 23.7076 171.292 10.5 155 10.5C138.708 10.5 125.5 23.7076 125.5 40C125.5 56.2924 138.708 69.5 155 69.5Z" fill="white" fill-opacity="0.1" stroke="url(#paint5_linear_22369_1213)"/>
<path d="M148.7 25H161.3C166.1 25 170 28.9 170 33.7V46.3C170 48.6074 169.083 50.8203 167.452 52.4518C165.82 54.0834 163.607 55 161.3 55H148.7C143.9 55 140 51.1 140 46.3V33.7C140 31.3926 140.917 29.1797 142.548 27.5482C144.18 25.9166 146.393 25 148.7 25ZM148.4 28C146.968 28 145.594 28.5689 144.582 29.5816C143.569 30.5943 143 31.9678 143 33.4V46.6C143 49.585 145.415 52 148.4 52H161.6C163.032 52 164.406 51.4311 165.418 50.4184C166.431 49.4057 167 48.0322 167 46.6V33.4C167 30.415 164.585 28 161.6 28H148.4ZM162.875 30.25C163.372 30.25 163.849 30.4475 164.201 30.7992C164.552 31.1508 164.75 31.6277 164.75 32.125C164.75 32.6223 164.552 33.0992 164.201 33.4508C163.849 33.8025 163.372 34 162.875 34C162.378 34 161.901 33.8025 161.549 33.4508C161.198 33.0992 161 32.6223 161 32.125C161 31.6277 161.198 31.1508 161.549 30.7992C161.901 30.4475 162.378 30.25 162.875 30.25ZM155 32.5C156.989 32.5 158.897 33.2902 160.303 34.6967C161.71 36.1032 162.5 38.0109 162.5 40C162.5 41.9891 161.71 43.8968 160.303 45.3033C158.897 46.7098 156.989 47.5 155 47.5C153.011 47.5 151.103 46.7098 149.697 45.3033C148.29 43.8968 147.5 41.9891 147.5 40C147.5 38.0109 148.29 36.1032 149.697 34.6967C151.103 33.2902 153.011 32.5 155 32.5ZM155 35.5C153.807 35.5 152.662 35.9741 151.818 36.818C150.974 37.6619 150.5 38.8065 150.5 40C150.5 41.1935 150.974 42.3381 151.818 43.182C152.662 44.0259 153.807 44.5 155 44.5C156.193 44.5 157.338 44.0259 158.182 43.182C159.026 42.3381 159.5 41.1935 159.5 40C159.5 38.8065 159.026 37.6619 158.182 36.818C157.338 35.9741 156.193 35.5 155 35.5Z" fill="white"/>
<path d="M80 64.5C93.531 64.5 104.5 53.531 104.5 40C104.5 26.469 93.531 15.5 80 15.5C66.469 15.5 55.5 26.469 55.5 40C55.5 53.531 66.469 64.5 80 64.5Z" fill="white" fill-opacity="0.1" stroke="url(#paint6_linear_22369_1213)"/>
<path d="M85.6607 31.76C84.7454 30.7194 84.2409 29.3832 84.2411 28H80.1027V44.5333C80.0714 45.4283 79.6922 46.2761 79.0451 46.898C78.3979 47.5199 77.5334 47.8672 76.6339 47.8667C74.7321 47.8667 73.1518 46.32 73.1518 44.4C73.1518 42.1067 75.375 40.3867 77.6652 41.0933V36.88C73.0446 36.2667 69 39.84 69 44.4C69 48.84 72.6964 52 76.6205 52C80.8259 52 84.2411 48.6 84.2411 44.4V36.0133C85.9192 37.2131 87.934 37.8569 90 37.8533V33.7333C90 33.7333 87.4821 33.8533 85.6607 31.76Z" fill="white"/>
<path d="M17.5 56.5C26.8888 56.5 34.5 48.8888 34.5 39.5C34.5 30.1112 26.8888 22.5 17.5 22.5C8.11116 22.5 0.5 30.1112 0.5 39.5C0.5 48.8888 8.11116 56.5 17.5 56.5Z" fill="white" fill-opacity="0.1" stroke="url(#paint7_linear_22369_1213)"/>
<path d="M23.2222 31C23.6937 31 24.1459 31.1873 24.4793 31.5207C24.8127 31.8541 25 32.3063 25 32.7778V45.2222C25 45.6937 24.8127 46.1459 24.4793 46.4793C24.1459 46.8127 23.6937 47 23.2222 47H10.7778C10.3063 47 9.8541 46.8127 9.5207 46.4793C9.1873 46.1459 9 45.6937 9 45.2222V32.7778C9 32.3063 9.1873 31.8541 9.5207 31.5207C9.8541 31.1873 10.3063 31 10.7778 31H23.2222ZM22.7778 44.7778V40.0667C22.7778 39.2981 22.4725 38.5611 21.929 38.0176C21.3856 37.4742 20.6485 37.1689 19.88 37.1689C19.1244 37.1689 18.2444 37.6311 17.8178 38.3244V37.3378H15.3378V44.7778H17.8178V40.3956C17.8178 39.7111 18.3689 39.1511 19.0533 39.1511C19.3834 39.1511 19.6999 39.2822 19.9333 39.5156C20.1667 39.749 20.2978 40.0655 20.2978 40.3956V44.7778H22.7778ZM12.4489 35.9422C12.8449 35.9422 13.2248 35.7849 13.5048 35.5048C13.7849 35.2248 13.9422 34.8449 13.9422 34.4489C13.9422 33.6222 13.2756 32.9467 12.4489 32.9467C12.0505 32.9467 11.6684 33.1049 11.3867 33.3867C11.1049 33.6684 10.9467 34.0505 10.9467 34.4489C10.9467 35.2756 11.6222 35.9422 12.4489 35.9422ZM13.6844 44.7778V37.3378H11.2222V44.7778H13.6844Z" fill="white"/>
</g>
<defs>
<filter id="filter0_f_22369_1213" x="200" y="-15" width="110" height="110" filterUnits="userSpaceOnUse" color-interpolation-filters="sRGB">
<feFlood flood-opacity="0" result="BackgroundImageFix"/>
<feBlend mode="normal" in="SourceGraphic" in2="BackgroundImageFix" result="shape"/>
<feGaussianBlur stdDeviation="15" result="effect1_foregroundBlur_22369_1213"/>
</filter>
<linearGradient id="paint0_linear_22369_1213" x1="280" y1="65" x2="229.808" y2="15.193" gradientUnits="userSpaceOnUse">
<stop stop-color="#60A5FA"/>
<stop offset="1" stop-color="#60A5FA" stop-opacity="0"/>
</linearGradient>
<linearGradient id="paint1_linear_22369_1213" x1="295.203" y1="1" x2="215.203" y2="81.203" gradientUnits="userSpaceOnUse">
<stop stop-color="white"/>
<stop offset="1" stop-color="#60A5FA" stop-opacity="0.5"/>
</linearGradient>
<linearGradient id="paint2_linear_22369_1213" x1="355" y1="10" x2="355" y2="70" gradientUnits="userSpaceOnUse">
<stop stop-color="white" stop-opacity="0.2"/>
<stop offset="1" stop-opacity="0"/>
</linearGradient>
<linearGradient id="paint3_linear_22369_1213" x1="430" y1="15" x2="430" y2="65" gradientUnits="userSpaceOnUse">
<stop stop-color="white" stop-opacity="0.2"/>
<stop offset="1" stop-opacity="0"/>
</linearGradient>
<linearGradient id="paint4_linear_22369_1213" x1="492.5" y1="22" x2="492.5" y2="57" gradientUnits="userSpaceOnUse">
<stop stop-color="white" stop-opacity="0.2"/>
<stop offset="1" stop-opacity="0"/>
</linearGradient>
<linearGradient id="paint5_linear_22369_1213" x1="155" y1="10" x2="155" y2="70" gradientUnits="userSpaceOnUse">
<stop stop-color="white" stop-opacity="0.2"/>
<stop offset="1" stop-opacity="0"/>
</linearGradient>
<linearGradient id="paint6_linear_22369_1213" x1="80" y1="15" x2="80" y2="65" gradientUnits="userSpaceOnUse">
<stop stop-color="white" stop-opacity="0.2"/>
<stop offset="1" stop-opacity="0"/>
</linearGradient>
<linearGradient id="paint7_linear_22369_1213" x1="17.5" y1="22" x2="17.5" y2="57" gradientUnits="userSpaceOnUse">
<stop stop-color="white" stop-opacity="0.2"/>
<stop offset="1" stop-opacity="0"/>
</linearGradient>
<clipPath id="clip0_22369_1213">
<rect width="510" height="80" fill="white"/>
</clipPath>
</defs>
</svg>
